<svg xmlns="http://www.w3.org/2000/svg" xmlns:xlink="http://www.w3.org/1999/xlink" viewBox="0 0 422.28 104.85"><defs><style>.cls-1{fill:url(#linear-gradient);}.cls-2{fill:url(#linear-gradient-2);}.cls-3{fill:url(#New_Gradient_Swatch_copy_4);}.cls-4{fill:url(#New_Gradient_Swatch_copy_4-2);}.cls-5{fill:url(#linear-gradient-3);}</style><linearGradient id="linear-gradient" x1="351.03" y1="53.54" x2="378.9" y2="32.87" gradientUnits="userSpaceOnUse"><stop offset="0.03" stop-color="#31f6c8"/><stop offset="0.38" stop-color="#25c6d2"/><stop offset="1" stop-color="#0e67e6"/></linearGradient><linearGradient id="linear-gradient-2" x1="11279.55" y1="-6929.9" x2="11310.96" y2="-6938.51" gradientTransform="translate(3410.94 -12873.46) rotate(135)" xlink:href="#linear-gradient"/><linearGradient id="New_Gradient_Swatch_copy_4" x1="5822.27" y1="-658.25" x2="5853.68" y2="-666.86" gradientTransform="translate(5002.13 3677.66) rotate(-135)" xlink:href="#linear-gradient"/><linearGradient id="New_Gradient_Swatch_copy_4-2" x1="17348.79" y1="2621.87" x2="17380.21" y2="2613.25" gradientTransform="translate(-17000.54 -2528.16)" xlink:href="#linear-gradient"/><linearGradient id="linear-gradient-3" x1="-19.86" y1="93.15" x2="238.28" y2="22.36" gradientUnits="userSpaceOnUse"><stop offset="0" stop-color="#31f6c8"/><stop offset="0.36" stop-color="#25c6d2"/><stop offset="1" stop-color="#0e67e6"/></linearGradient></defs><title>Head-Logo</title><g id="Layer_2" data-name="Layer 2"><g id="Layer_1-2" data-name="Layer 1"><path class="cls-1" d="M365,25.85A17.36,17.36,0,1,0,382.32,43.2,17.35,17.35,0,0,0,365,25.85Zm11.54,26.59c-.12.07-1.15-.91-1.17-.93s-.8-.83-1.06-.72a6.75,6.75,0,0,0-1.1.57c-.22.12-1.1.59-1.32.73a28.43,28.43,0,0,1-3,1.87,1.71,1.71,0,0,1-2.44-1.05,17.91,17.91,0,0,1-.77-2.52c-.08-.32-.2-.39-.51-.35a8.76,8.76,0,0,1-1.61.1A5.56,5.56,0,0,0,360,51.23a6.63,6.63,0,0,1-2.78,1.32,2.46,2.46,0,0,1-2.46-1c-.15-.25-.34-.47-.51-.7a3.24,3.24,0,0,1,.12-4c1.05-1.49,2-3.08,2.93-4.62.45-.71.89-1.43,1.38-2.12a.42.42,0,0,0,0-.63c-1.67-1.94-3.32-3.9-5-5.85a1.75,1.75,0,0,1-.31-.42c-.15-.33,0-.49.34-.44a2.09,2.09,0,0,1,.57.26l5.8,3.35c.63.36.76.24.83-.49.09-1,.24-2,.4-3a1.24,1.24,0,0,1,.15-.52.2.2,0,0,1,.25,0,2.3,2.3,0,0,1,.36.41c.47.64.89,1.28,1.37,1.91a1.47,1.47,0,0,0,.4.34.39.39,0,0,0,.36-.09,4.15,4.15,0,0,0,.11-.48c.14-.62.16-1.19.32-1.8s.38-.55.71-.13A10.51,10.51,0,0,1,366.36,34a1.28,1.28,0,0,0,1.36.76,4.75,4.75,0,0,1,3.06.84,8.77,8.77,0,0,1,1.45,1.47c.8,1,1.5,2,2.33,2.93a6.22,6.22,0,0,1,1.63,3.73c0,.22,0,.45.05.67v.42h0c0,.38.06.76.07,1.15s0,.85,0,1.28c0,.21-.08,1.06-.11,1.29,0,.08-.07.71-.07,1a7,7,0,0,0,.07,1.55C376.33,51.76,376.62,52.36,376.51,52.44Z"/><path class="cls-2" d="M315.64,6.44A25.85,25.85,0,0,1,323.37.9a11.21,11.21,0,0,1,13.91,4.36,29.26,29.26,0,0,1,4.34,16.67,11.25,11.25,0,0,1-10.4,10.54A28.34,28.34,0,0,1,314.17,28a11.24,11.24,0,0,1-3.52-15.07A29.1,29.1,0,0,1,315.64,6.44Z"/><path class="cls-3" d="M415.84,6.51a25.85,25.85,0,0,1,5.54,7.73A11.21,11.21,0,0,1,417,28.15a29.3,29.3,0,0,1-16.67,4.34,11.24,11.24,0,0,1-10.54-10.4,28.36,28.36,0,0,1,4.48-17,11.23,11.23,0,0,1,15.07-3.52A29.1,29.1,0,0,1,415.84,6.51Z"/><path class="cls-4" d="M364.88,104.85a25.87,25.87,0,0,1-9.39-1.55,11.21,11.21,0,0,1-6.75-12.91,29.28,29.28,0,0,1,8.72-14.86,11.22,11.22,0,0,1,14.8-.1,28.22,28.22,0,0,1,8.89,15.22A11.23,11.23,0,0,1,373,103.8,29.22,29.22,0,0,1,364.88,104.85Z"/><path class="cls-5" d="M7.31,20.83V54c0,12.54,5.56,17.85,13,17.85C28.65,71.81,34,66.33,34,54V20.83h7.31V53.46c0,17.19-9.05,24.25-21.17,24.25C8.64,77.71,0,71.15,0,53.8v-33Z"/><path class="cls-5" d="M53.56,47.48c0-4.15-.08-7.55-.33-10.87H59.7l.42,6.64h.17a14.77,14.77,0,0,1,13.28-7.56c5.57,0,14.2,3.32,14.2,17.11v24H80.46V53.63c0-6.48-2.4-11.88-9.3-11.88a10.4,10.4,0,0,0-9.8,7.48,10.56,10.56,0,0,0-.49,3.4V76.8H53.56Z"/><path class="cls-5" d="M107.78,25.31a4.53,4.53,0,0,1-9,0,4.45,4.45,0,0,1,4.57-4.56A4.33,4.33,0,0,1,107.78,25.31ZM99.65,76.8V36.61H107V76.8Z"/><path class="cls-5" d="M118.08,69.32a19.17,19.17,0,0,0,9.63,2.91c5.32,0,7.81-2.66,7.81-6,0-3.49-2.08-5.4-7.48-7.39-7.22-2.57-10.62-6.56-10.62-11.38,0-6.47,5.23-11.79,13.86-11.79a20.14,20.14,0,0,1,9.88,2.49l-1.82,5.32a15.63,15.63,0,0,0-8.22-2.33c-4.32,0-6.73,2.49-6.73,5.48,0,3.33,2.41,4.82,7.64,6.81,7,2.66,10.55,6.15,10.55,12.13,0,7-5.48,12-15,12a23,23,0,0,1-11.3-2.74Z"/><path class="cls-5" d="M160.76,25.06V36.61h10.46v5.56H160.76V63.84c0,5,1.41,7.81,5.48,7.81a16.29,16.29,0,0,0,4.24-.5l.33,5.48a17.89,17.89,0,0,1-6.48,1c-3.4,0-6.14-1.08-7.89-3.08-2.07-2.15-2.82-5.73-2.82-10.46V42.17h-6.23V36.61h6.23V27Z"/><path class="cls-5" d="M201.7,76.8l-.58-5.07h-.25a15,15,0,0,1-12.29,6c-8.14,0-12.29-5.73-12.29-11.54,0-9.72,8.64-15,24.16-15v-.83c0-3.32-.91-9.3-9.13-9.3a20,20,0,0,0-10.46,3l-1.66-4.82a24.91,24.91,0,0,1,13.2-3.57c12.29,0,15.28,8.39,15.28,16.44v15a56.51,56.51,0,0,0,.66,9.64Zm-1.08-20.51c-8-.17-17,1.24-17,9.05,0,4.73,3.15,7,6.89,7a10,10,0,0,0,9.71-6.72,7.64,7.64,0,0,0,.42-2.33Z"/><path class="cls-5" d="M226.69,55h.17c1-1.41,2.41-3.16,3.57-4.57l11.79-13.86H251L235.5,53.13,253.18,76.8H244.3L230.43,57.53l-3.74,4.15V76.8h-7.22v-59h7.22Z"/><path class="cls-5" d="M262.48,58c.17,9.88,6.48,14,13.79,14a26.27,26.27,0,0,0,11.12-2.08l1.25,5.24a32.6,32.6,0,0,1-13.37,2.49c-12.37,0-19.76-8.14-19.76-20.26s7.14-21.68,18.85-21.68c13.12,0,16.6,11.55,16.6,18.94a28.62,28.62,0,0,1-.24,3.4Zm21.43-5.23c.08-4.65-1.91-11.88-10.13-11.88-7.39,0-10.63,6.81-11.21,11.88Z"/></g></g></svg>