<svg xmlns="http://www.w3.org/2000/svg" xmlns:xlink="http://www.w3.org/1999/xlink" viewBox="0 0 154.23 142.92"><defs><style>.cls-1{fill:url(#linear-gradient);}.cls-2{fill:url(#linear-gradient-2);}.cls-3{fill:url(#New_Gradient_Swatch_copy_4);}.cls-4{fill:url(#New_Gradient_Swatch_copy_4-2);}</style><linearGradient id="linear-gradient" x1="57.12" y1="72.98" x2="95.11" y2="44.8" gradientUnits="userSpaceOnUse"><stop offset="0.03" stop-color="#31f6c8"/><stop offset="0.38" stop-color="#25c6d2"/><stop offset="1" stop-color="#0e67e6"/></linearGradient><linearGradient id="linear-gradient-2" x1="11566.33" y1="-7196.03" x2="11609.15" y2="-7207.77" gradientTransform="translate(3125.9 -13263.49) rotate(135)" xlink:href="#linear-gradient"/><linearGradient id="New_Gradient_Swatch_copy_4" x1="5720.71" y1="-1245.2" x2="5763.53" y2="-1256.94" gradientTransform="translate(5076.38 3200.31) rotate(-135)" xlink:href="#linear-gradient"/><linearGradient id="New_Gradient_Swatch_copy_4-2" x1="17053.87" y1="2655.89" x2="17096.69" y2="2644.15" gradientTransform="translate(-17000.54 -2528.16)" xlink:href="#linear-gradient"/></defs><title>Main-Logo</title><g id="Layer_2" data-name="Layer 2"><g id="Layer_1-2" data-name="Layer 1"><path class="cls-1" d="M76.11,35.24A23.65,23.65,0,1,0,99.77,58.89,23.65,23.65,0,0,0,76.11,35.24ZM91.85,71.49c-.17.09-1.57-1.25-1.6-1.28s-1.09-1.12-1.45-1a9.72,9.72,0,0,0-1.49.79c-.31.16-1.5.79-1.8,1a36.41,36.41,0,0,1-4.1,2.56,2.34,2.34,0,0,1-3.33-1.43,24,24,0,0,1-1-3.44c-.12-.44-.28-.53-.7-.48a11.57,11.57,0,0,1-2.19.14,7.53,7.53,0,0,0-4.86,1.48,9.13,9.13,0,0,1-3.79,1.81,3.37,3.37,0,0,1-3.35-1.43c-.22-.33-.47-.63-.7-.95a4.42,4.42,0,0,1,.16-5.38c1.43-2,2.67-4.2,4-6.3.62-1,1.22-2,1.89-2.89a.56.56,0,0,0,0-.85q-3.41-4-6.77-8a2.62,2.62,0,0,1-.42-.57c-.21-.45,0-.67.46-.59a2.71,2.71,0,0,1,.78.35c2.64,1.52,5.27,3.05,7.91,4.56.85.49,1,.33,1.13-.66.12-1.38.32-2.75.54-4.12a2,2,0,0,1,.2-.71.31.31,0,0,1,.35-.07,3.64,3.64,0,0,1,.49.56c.64.87,1.22,1.75,1.87,2.6a2,2,0,0,0,.54.47.48.48,0,0,0,.49-.13c0-.11.13-.53.16-.65.18-.84.2-1.62.44-2.45s.51-.75,1-.18A14.39,14.39,0,0,1,78,46.32a1.77,1.77,0,0,0,1.86,1A6.43,6.43,0,0,1,84,48.5a12.49,12.49,0,0,1,2,2c1.08,1.31,2,2.73,3.17,4a8.4,8.4,0,0,1,2.22,5.08c0,.3,0,.61.07.92v.57h0c0,.52.08,1,.09,1.56s0,1.17,0,1.76c0,.28-.11,1.44-.15,1.76,0,.1-.1,1-.1,1.3a9.06,9.06,0,0,0,.1,2.12C91.6,70.55,92,71.37,91.85,71.49Z"/><path class="cls-2" d="M8.87,8.78A35,35,0,0,1,19.41,1.23a15.26,15.26,0,0,1,19,5.94,40,40,0,0,1,5.92,22.72A15.31,15.31,0,0,1,30.11,44.25a38.52,38.52,0,0,1-23.24-6.1,15.31,15.31,0,0,1-4.8-20.54A39.7,39.7,0,0,1,8.87,8.78Z"/><path class="cls-3" d="M145.45,8.88A35,35,0,0,1,153,19.41a15.29,15.29,0,0,1-5.94,19,40,40,0,0,1-22.72,5.92A15.31,15.31,0,0,1,110,30.11a38.56,38.56,0,0,1,6.1-23.23,15.3,15.3,0,0,1,20.55-4.8A38.84,38.84,0,0,1,145.45,8.88Z"/><path class="cls-4" d="M76,142.92a35,35,0,0,1-12.79-2.11,15.27,15.27,0,0,1-9.2-17.6A39.92,39.92,0,0,1,65.88,103a15.31,15.31,0,0,1,20.18-.13,38.64,38.64,0,0,1,12.12,20.75A15.31,15.31,0,0,1,87,141.49,39.27,39.27,0,0,1,76,142.92Z"/></g></g></svg>