<svg xmlns="http://www.w3.org/2000/svg" viewBox="0 0 801.17 802.2"><defs><style>.cls-1{fill:#1b81cf;}</style></defs><title>Overview Icon</title><g id="Layer_2" data-name="Layer 2"><g id="Layer_1-2" data-name="Layer 1"><path class="cls-1" d="M275.93,0c15.54,2.54,31.26,4.25,46.57,7.77C372.4,19.24,413.92,45.28,449,82.15a253.56,253.56,0,0,1,47.44,70.1c10.32,22.64,16.55,46.52,19.87,71.18a266.09,266.09,0,0,1-7.77,110.25c-8.48,29.41-22.66,56-40.74,80.59a28.29,28.29,0,0,1-2.41,3.09c9.14,8.58,18.8,16.68,27.27,25.88,7.64,8.29,15.39,12.55,27.44,11.93,21.61-1.1,42.59,3.28,60.74,16.13a169.26,169.26,0,0,1,21.59,17.92c54,53.72,107.71,107.71,161.68,161.46,18.3,18.22,31.92,38.77,35.33,65,.52,4,1.13,8,1.7,12v2.57c-1.22,6.47-2,13-3.72,19.39-9.56,35.56-43.86,57.2-80.4,51.77-28.14-4.17-50.49-18.17-70-38-33.86-34.28-68-68.32-101.88-102.53-21.92-22.1-44.1-44-65.45-66.61-20.3-21.53-28.72-47.58-25-77,.87-6.93-1-11.68-5.86-16.27-11.52-10.74-22.71-21.83-34.34-33.07C393.52,483.17,370.7,496.3,345.51,505c-38,13.13-76.85,16.66-116.71,11.86-32.35-3.89-62.9-13-91.68-28.35a261.14,261.14,0,0,1-74-59.19c-29.8-34.11-49.66-73.27-58-117.87C-4.66,259.27-.73,208.13,19.45,158.79c15-36.74,38.66-67.53,68.07-94C129.74,26.84,179.35,6,235.77,1c1.87-.17,3.72-.65,5.57-1ZM259.79,75.75c-100.77-2-183.43,83-184.41,181.3-1,99.61,81.35,185.19,181.11,186.53C357.5,445,443,359.47,443.49,260,444,162.7,362.49,74.8,259.79,75.75Z"/><path class="cls-1" d="M259.65,220.51a37.72,37.72,0,1,0,37.72,37.72A37.72,37.72,0,0,0,259.65,220.51Zm25.09,57.8c-.27.15-2.5-2-2.55-2s-1.73-1.79-2.3-1.57a16,16,0,0,0-2.38,1.26c-.49.25-2.4,1.27-2.87,1.57a58.17,58.17,0,0,1-6.54,4.07c-2.33,1.06-4.33.09-5.32-2.27a39.59,39.59,0,0,1-1.68-5.49c-.18-.7-.43-.85-1.11-.76a17.9,17.9,0,0,1-3.5.22,11.92,11.92,0,0,0-7.74,2.37c-1.87,1.25-3.7,2.54-6.05,2.87a5.36,5.36,0,0,1-5.35-2.27c-.34-.53-.75-1-1.11-1.52-2-2.77-1.68-5.85.25-8.58,2.29-3.23,4.26-6.69,6.38-10,1-1.55,1.94-3.12,3-4.62a.9.9,0,0,0-.06-1.36c-3.62-4.22-7.21-8.48-10.81-12.73a4.23,4.23,0,0,1-.66-.91c-.33-.72,0-1.07.73-.94a3.88,3.88,0,0,1,1.25.56l12.61,7.27c1.36.78,1.65.53,1.79-1,.2-2.2.53-4.39.87-6.57a3.22,3.22,0,0,1,.33-1.14.47.47,0,0,1,.55-.11,5.54,5.54,0,0,1,.78.9c1,1.38,2,2.79,3,4.15a3.49,3.49,0,0,0,.86.75.81.81,0,0,0,.77-.21,9.88,9.88,0,0,0,.26-1c.29-1.34.33-2.59.7-3.91.31-1.12.82-1.19,1.53-.29a22.28,22.28,0,0,1,2.29,3.29,2.84,2.84,0,0,0,3,1.65,10.29,10.29,0,0,1,6.65,1.83,19.41,19.41,0,0,1,3.15,3.19c1.73,2.09,3.26,4.35,5.05,6.38a13.46,13.46,0,0,1,3.56,8.09c0,.49.07,1,.11,1.47V261c0,.23,0,.46,0,.68v.05h0c0,.84.13,1.67.15,2.5s0,1.87-.06,2.8c0,.45-.17,2.3-.24,2.81,0,.16-.16,1.54-.17,2.08a14.57,14.57,0,0,0,.17,3.37C284.34,276.83,285,278.13,284.74,278.31Z"/><path class="cls-1" d="M152.41,178.3c5-4.86,10.32-9.29,16.8-12.05a24.36,24.36,0,0,1,30.23,9.48A63.71,63.71,0,0,1,208.89,212c-.41,11.84-10.56,22.25-22.61,22.91a61.57,61.57,0,0,1-37.07-9.73c-10.94-7-14.08-21.32-7.65-32.77A62.79,62.79,0,0,1,152.41,178.3Z"/><path class="cls-1" d="M370.24,178.46c4.86,5,9.29,10.32,12.05,16.8a24.36,24.36,0,0,1-9.48,30.23,63.69,63.69,0,0,1-36.24,9.45c-11.84-.41-22.25-10.56-22.91-22.61a61.52,61.52,0,0,1,9.73-37.06c7-11,21.32-14.08,32.77-7.66A62.86,62.86,0,0,1,370.24,178.46Z"/><path class="cls-1" d="M259.45,392.25c-7-.1-13.87-.74-20.4-3.37a24.35,24.35,0,0,1-14.68-28.07,63.78,63.78,0,0,1,18.95-32.31c8.67-8.08,23.2-8.26,32.19-.21a61.53,61.53,0,0,1,19.33,33.09c2.8,12.67-5.12,25-17.76,28.58A62.81,62.81,0,0,1,259.45,392.25Z"/></g></g></svg>