<svg xmlns="http://www.w3.org/2000/svg" viewBox="0 0 145 145.02"><defs><style>.cls-1{fill:#21a6d5;}</style></defs><title>Tab-Stake-Icon_1</title><g id="Layer_2" data-name="Layer 2"><g id="Layer_1-2" data-name="Layer 1"><path class="cls-1" d="M76.76,145h-8.5a8.51,8.51,0,0,0-1.09-.24,69,69,0,0,1-31.64-10C16.75,123.3,5.19,106.7,1.13,85,.62,82.28.37,79.51,0,76.77v-8.5c.09-.5.19-1,.26-1.5.45-3.12.71-6.29,1.38-9.36A70.45,70.45,0,0,1,28.55,15C46.2,1.63,66.07-2.81,87.73,1.71c17.34,3.62,31.44,12.7,42.23,26.72,11.64,15.14,16.49,32.37,14.67,51.34a70.09,70.09,0,0,1-17.69,40.53A71.23,71.23,0,0,1,85,143.89C82.27,144.37,79.51,144.65,76.76,145ZM12,73.84c.91,33.45,28.74,60.1,61.83,59.22,33.45-.89,60.15-28.72,59.27-61.79-.89-33.52-28.75-60.2-61.91-59.29C37.71,12.9,11.06,40.75,12,73.84Z"/><path class="cls-1" d="M66.55,50.7c0-7.17,0-14.35,0-21.52a5.93,5.93,0,0,1,8.06-5.65A5.87,5.87,0,0,1,78.45,29c0,2.55,0,5.09,0,7.64,0,10.71,0,21.42,0,32.13a3.89,3.89,0,0,0,.87,2.36Q89.46,82.68,99.66,94.16c1.57,1.77,2.47,3.7,1.87,6.07a5.87,5.87,0,0,1-9.85,2.83c-2.28-2.25-4.3-4.76-6.43-7.16Q76.63,86.15,68,76.38a6.34,6.34,0,0,1-1.48-4.45C66.56,64.85,66.55,57.77,66.55,50.7Z"/></g></g></svg>