<svg xmlns="http://www.w3.org/2000/svg" viewBox="0 0 209.85 145.08"><defs><style>.cls-1{fill:#21a6d5;}</style></defs><title>Tab-Token-Icon_1</title><g id="Layer_2" data-name="Layer 2"><g id="Layer_1-2" data-name="Layer 1"><path class="cls-1" d="M150.09,113.86a8,8,0,0,1-1.94,4.32,18.63,18.63,0,0,1-4.55,3.89,33.94,33.94,0,0,1-3.66,2,66.94,66.94,0,0,1-18.61,5.34,108.56,108.56,0,0,1-23.76,1.09c-9.36-.59-18.52-2.07-27.13-5.68a34.73,34.73,0,0,1-5.35-2.78,21.31,21.31,0,0,1-3.73-3,8.67,8.67,0,0,1-2.74-5.2h0v14.34h.06a8.56,8.56,0,0,0,2.67,5.21,21.78,21.78,0,0,0,3.73,3,33.83,33.83,0,0,0,5.35,2.77c8.61,3.62,17.77,5.1,27.13,5.69a108.56,108.56,0,0,0,23.76-1.09,67.62,67.62,0,0,0,18.61-5.34,33.94,33.94,0,0,0,3.66-2,18.67,18.67,0,0,0,4.55-3.9,7.84,7.84,0,0,0,1.88-4.3h.06V113.87Z"/><path class="cls-1" d="M150.09,95.61a8,8,0,0,1-1.94,4.31,18.46,18.46,0,0,1-4.55,3.9,33.94,33.94,0,0,1-3.66,2,67.28,67.28,0,0,1-18.61,5.34,108.56,108.56,0,0,1-23.76,1.09c-9.36-.59-18.52-2.07-27.13-5.69a33.83,33.83,0,0,1-5.35-2.77,21.31,21.31,0,0,1-3.73-3,8.67,8.67,0,0,1-2.74-5.21h0V110h.06a8.52,8.52,0,0,0,2.67,5.2,21.37,21.37,0,0,0,3.73,3,33.83,33.83,0,0,0,5.35,2.77c8.61,3.62,17.77,5.1,27.13,5.69a109.18,109.18,0,0,0,23.76-1.09,67.3,67.3,0,0,0,18.61-5.35,32.3,32.3,0,0,0,3.66-2,18.63,18.63,0,0,0,4.55-3.89A7.88,7.88,0,0,0,150,110h.06V95.62Z"/><path class="cls-1" d="M150.09,77.26a8,8,0,0,1-1.94,4.32,18.63,18.63,0,0,1-4.55,3.89,33.94,33.94,0,0,1-3.66,2,67.28,67.28,0,0,1-18.61,5.34,108.56,108.56,0,0,1-23.76,1.09c-9.36-.59-18.52-2.07-27.13-5.68a34.73,34.73,0,0,1-5.35-2.78,21.31,21.31,0,0,1-3.73-3,8.67,8.67,0,0,1-2.74-5.21h0V91.61h.06a8.56,8.56,0,0,0,2.67,5.21,21.78,21.78,0,0,0,3.73,3,33.83,33.83,0,0,0,5.35,2.77c8.61,3.62,17.77,5.1,27.13,5.69a108.56,108.56,0,0,0,23.76-1.09,67.62,67.62,0,0,0,18.61-5.34,34,34,0,0,0,3.66-2,18.42,18.42,0,0,0,4.55-3.89,7.84,7.84,0,0,0,1.88-4.3h.06V77.27Z"/><path class="cls-1" d="M150.09,59a8,8,0,0,1-1.94,4.31,18.67,18.67,0,0,1-4.55,3.9,33.94,33.94,0,0,1-3.66,2,67.62,67.62,0,0,1-18.61,5.34,108.56,108.56,0,0,1-23.76,1.09C88.21,75.08,79.05,73.6,70.44,70a33.83,33.83,0,0,1-5.35-2.77,21.78,21.78,0,0,1-3.73-3A8.69,8.69,0,0,1,58.62,59h0V73.36h.06a8.52,8.52,0,0,0,2.67,5.2,21.37,21.37,0,0,0,3.73,3,35.58,35.58,0,0,0,5.35,2.77c8.61,3.61,17.77,5.1,27.13,5.69a109.18,109.18,0,0,0,23.76-1.09,67.3,67.3,0,0,0,18.61-5.35,32.3,32.3,0,0,0,3.66-2,18.63,18.63,0,0,0,4.55-3.89,7.88,7.88,0,0,0,1.88-4.3h.06V59Z"/><path class="cls-1" d="M150.09,59.05a8,8,0,0,1-1.94,4.32,18.63,18.63,0,0,1-4.55,3.89,33.94,33.94,0,0,1-3.66,2,67.28,67.28,0,0,1-18.61,5.34,108.56,108.56,0,0,1-23.76,1.09c-9.36-.59-18.52-2.07-27.13-5.68a34.73,34.73,0,0,1-5.35-2.78,21.31,21.31,0,0,1-3.73-3,8.67,8.67,0,0,1-2.74-5.21h0V73.4h.06a8.56,8.56,0,0,0,2.67,5.21,21.78,21.78,0,0,0,3.73,3,33.83,33.83,0,0,0,5.35,2.77c8.61,3.62,17.77,5.1,27.13,5.69A108.56,108.56,0,0,0,121.33,89a67.62,67.62,0,0,0,18.61-5.34,34,34,0,0,0,3.66-2,18.63,18.63,0,0,0,4.55-3.89A7.84,7.84,0,0,0,150,73.4h.06V59.06Z"/><path class="cls-1" d="M150.09,40.8a8,8,0,0,1-1.94,4.31A18.42,18.42,0,0,1,143.6,49a34,34,0,0,1-3.66,2,67.62,67.62,0,0,1-18.61,5.34,108.56,108.56,0,0,1-23.76,1.09c-9.36-.59-18.52-2.07-27.13-5.69A33.83,33.83,0,0,1,65.09,49a21.78,21.78,0,0,1-3.73-3,8.69,8.69,0,0,1-2.74-5.21h0V55.14h.06a8.51,8.51,0,0,0,2.67,5.21,21.84,21.84,0,0,0,3.73,3,35.58,35.58,0,0,0,5.35,2.77c8.61,3.61,17.77,5.1,27.13,5.68a108.56,108.56,0,0,0,23.76-1.08,67.3,67.3,0,0,0,18.61-5.35,32.3,32.3,0,0,0,3.66-2,18.63,18.63,0,0,0,4.55-3.89A7.87,7.87,0,0,0,150,55.14h.06V40.81Z"/><path class="cls-1" d="M150.09,40.69A8,8,0,0,1,148.15,45a18.63,18.63,0,0,1-4.55,3.89,32.3,32.3,0,0,1-3.66,2,67.3,67.3,0,0,1-18.61,5.35,108.56,108.56,0,0,1-23.76,1.08c-9.36-.58-18.52-2.07-27.13-5.68a34.73,34.73,0,0,1-5.35-2.78,21.31,21.31,0,0,1-3.73-3,8.67,8.67,0,0,1-2.74-5.2h0V55h.06a8.56,8.56,0,0,0,2.67,5.21,21.31,21.31,0,0,0,3.73,3A34.73,34.73,0,0,0,70.44,66c8.61,3.61,17.77,5.09,27.13,5.68a108.56,108.56,0,0,0,23.76-1.09,67.28,67.28,0,0,0,18.61-5.34,33.94,33.94,0,0,0,3.66-2,18.63,18.63,0,0,0,4.55-3.89A7.9,7.9,0,0,0,150,55h.06V40.7Z"/><path class="cls-1" d="M150.09,22.44a8,8,0,0,1-1.94,4.32,18.63,18.63,0,0,1-4.55,3.89,33.94,33.94,0,0,1-3.66,2A67.28,67.28,0,0,1,121.33,38,108.56,108.56,0,0,1,97.57,39.1c-9.36-.59-18.52-2.07-27.13-5.68a34.73,34.73,0,0,1-5.35-2.78,21.31,21.31,0,0,1-3.73-3,8.67,8.67,0,0,1-2.74-5.21h0V36.79h.06A8.56,8.56,0,0,0,61.36,42a21.78,21.78,0,0,0,3.73,3,33.83,33.83,0,0,0,5.35,2.77c8.61,3.62,17.77,5.1,27.13,5.69a108.56,108.56,0,0,0,23.76-1.09A67.62,67.62,0,0,0,139.94,47a34,34,0,0,0,3.66-2,18.63,18.63,0,0,0,4.55-3.89,7.84,7.84,0,0,0,1.88-4.3h.06V22.45Z"/><path class="cls-1" d="M102.59,0c12,.1,22.12,1.19,31.85,4.45a33.86,33.86,0,0,1,12.08,6.44,14.73,14.73,0,0,1,1.64,1.71c2.57,3.16,2.57,6.53,0,9.7a23,23,0,0,1-8.21,5.91,67.28,67.28,0,0,1-18.61,5.34,108.56,108.56,0,0,1-23.76,1.09c-9.36-.59-18.52-2.07-27.14-5.68a26.93,26.93,0,0,1-9.07-5.76c-3.65-3.74-3.65-7.81,0-11.54A28.68,28.68,0,0,1,71.72,5.39,78.15,78.15,0,0,1,93.36.59C97,.26,100.66.12,102.59,0Z"/><path class="cls-1" d="M157.34,128.93a108.56,108.56,0,0,0,23.76-1.09,67.28,67.28,0,0,0,18.61-5.34,33.94,33.94,0,0,0,3.66-2,18.63,18.63,0,0,0,4.55-3.89,8,8,0,0,0,1.88-4.31h0V97.94h0a8.07,8.07,0,0,1-1.93,4.31,18.63,18.63,0,0,1-4.55,3.89,32.3,32.3,0,0,1-3.66,2,67.3,67.3,0,0,1-18.61,5.35,108.56,108.56,0,0,1-23.76,1.08q-3.66-.23-7.26-.66v14.33Q153.68,128.71,157.34,128.93Z"/><path class="cls-1" d="M118.39,98h0v0Z"/><path class="cls-1" d="M157.34,110.68a108.56,108.56,0,0,0,23.76-1.09,67.62,67.62,0,0,0,18.61-5.34,34,34,0,0,0,3.66-2,18.42,18.42,0,0,0,4.55-3.89A7.92,7.92,0,0,0,209.8,94h0V79.69h0A8.1,8.1,0,0,1,207.92,84a18.63,18.63,0,0,1-4.55,3.89,33.94,33.94,0,0,1-3.66,2,67.28,67.28,0,0,1-18.61,5.34,108.56,108.56,0,0,1-23.76,1.09q-3.66-.23-7.26-.67V110Q153.68,110.46,157.34,110.68Z"/><path class="cls-1" d="M118.39,79.69v0Z"/><path class="cls-1" d="M181.1,73.14a67.3,67.3,0,0,0,18.61-5.35,22.78,22.78,0,0,0,8.21-5.91c2.58-3.16,2.58-6.53,0-9.7a15.44,15.44,0,0,0-1.63-1.71A34,34,0,0,0,194.21,44c-9.73-3.26-19.84-4.35-31.85-4.45-1.94.11-5.6.26-9.24.58-1,.09-2,.2-3,.32V73.56c2.4.3,4.82.51,7.26.67A109.18,109.18,0,0,0,181.1,73.14Z"/><path class="cls-1" d="M118.39,61.35h0v0Z"/><path class="cls-1" d="M207.92,65.65a18.63,18.63,0,0,1-4.55,3.89,32.3,32.3,0,0,1-3.66,2,67.3,67.3,0,0,1-18.61,5.35A108.56,108.56,0,0,1,157.34,78q-3.66-.22-7.26-.66V91.66q3.6.45,7.26.67a108.56,108.56,0,0,0,23.76-1.09,67.28,67.28,0,0,0,18.61-5.34,33.94,33.94,0,0,0,3.66-2A18.63,18.63,0,0,0,207.92,80a8,8,0,0,0,1.88-4.31h0V61.34h0A8.07,8.07,0,0,1,207.92,65.65Z"/><path class="cls-1" d="M39,114.59c-9.36-.58-18.52-2.07-27.14-5.68a34.62,34.62,0,0,1-5.34-2.78,21.31,21.31,0,0,1-3.73-3A8.68,8.68,0,0,1,0,98v14.32H.06a8.58,8.58,0,0,0,2.68,5.21,21.31,21.31,0,0,0,3.73,3,34.62,34.62,0,0,0,5.34,2.78c8.62,3.61,17.78,5.09,27.14,5.68a109.49,109.49,0,0,0,19.67-.53V114.06A108.57,108.57,0,0,1,39,114.59Z"/><path class="cls-1" d="M0,98H0v0Z"/><path class="cls-1" d="M39,96.34c-9.36-.59-18.52-2.07-27.14-5.68a34.62,34.62,0,0,1-5.34-2.78,21.31,21.31,0,0,1-3.73-3A8.68,8.68,0,0,1,0,79.71V94H.06a8.58,8.58,0,0,0,2.68,5.21,21.78,21.78,0,0,0,3.73,3A33.72,33.72,0,0,0,11.81,105c8.62,3.62,17.78,5.1,27.14,5.69a109.49,109.49,0,0,0,19.67-.54V95.81A109.49,109.49,0,0,1,39,96.34Z"/><path class="cls-1" d="M0,79.69v0Z"/><path class="cls-1" d="M44,39.59c-1.94.11-5.6.26-9.24.58A78.52,78.52,0,0,0,13.1,45,28.83,28.83,0,0,0,2.75,51.25c-3.66,3.72-3.66,7.8,0,11.53a26.93,26.93,0,0,0,9.07,5.76c8.62,3.62,17.78,5.1,27.14,5.69a109.51,109.51,0,0,0,19.67-.54V40.39A143.06,143.06,0,0,0,44,39.59Z"/><path class="cls-1" d="M0,61.35H0v0Z"/><path class="cls-1" d="M39,78c-9.36-.58-18.52-2.07-27.14-5.68a34.62,34.62,0,0,1-5.34-2.78,21.31,21.31,0,0,1-3.73-3A8.68,8.68,0,0,1,0,61.36V75.68H.06a8.58,8.58,0,0,0,2.68,5.21,21.31,21.31,0,0,0,3.73,3,34.62,34.62,0,0,0,5.34,2.78c8.62,3.61,17.78,5.09,27.14,5.68a109.49,109.49,0,0,0,19.67-.53V77.46A108.57,108.57,0,0,1,39,78Z"/></g></g></svg>