<svg xmlns="http://www.w3.org/2000/svg" xmlns:xlink="http://www.w3.org/1999/xlink" viewBox="0 0 79.85 87.51"><defs><style>.cls-1{fill:url(#linear-gradient);}.cls-2{fill:url(#linear-gradient-2);}</style><linearGradient id="linear-gradient" x1="8.3" y1="89.41" x2="71.1" y2="42.83" gradientUnits="userSpaceOnUse"><stop offset="0.03" stop-color="#31f6c8"/><stop offset="0.38" stop-color="#25c6d2"/><stop offset="1" stop-color="#0e67e6"/></linearGradient><linearGradient id="linear-gradient-2" x1="22.34" y1="35.2" x2="57.82" y2="8.88" xlink:href="#linear-gradient"/></defs><title>W2</title><g id="Layer_2" data-name="Layer 2"><g id="Layer_1-2" data-name="Layer 1"><path class="cls-1" d="M40,87.46c-8.44,0-16.88,0-25.32,0C5.68,87.4.14,81.73,0,72.68-.11,64,.44,55.42,5.47,48.05a24.45,24.45,0,0,1,8-6.92c3.26-1.86,6.79-1.6,10.21.83,11,7.81,22,7.44,33-.2,4.86-3.38,12.41-1.57,16.42,3.76a34.1,34.1,0,0,1,6.64,18.6c.22,3.38.08,6.79.06,10.19,0,7.34-5.36,13-12.72,13.11C58.05,87.59,49,87.46,40,87.46Z"/><path class="cls-2" d="M40.09,0A22.06,22.06,0,0,1,62.18,22.12,22.7,22.7,0,0,1,40,44.42c-11.47,0-22.18-10.54-22.28-22.06A22.38,22.38,0,0,1,40.09,0Z"/></g></g></svg>